<svg width="153" height="55" viewBox="0 0 153 55" fill="none" xmlns="http://www.w3.org/2000/svg">
<path d="M55.8694 45.411C54.5085 45.411 53.3166 45.0685 52.2937 44.3835C51.2707 43.6985 50.4715 42.7669 49.8961 41.5886C49.3298 40.4104 49.0467 39.0815 49.0467 37.6019C49.0467 36.0948 49.3344 34.7568 49.9098 33.5877C50.4944 32.4095 51.3118 31.4824 52.3622 30.8065C53.4125 30.1306 54.6455 29.7927 56.0612 29.7927C57.4678 29.7927 58.6506 30.1352 59.6096 30.8202C60.5686 31.5052 61.2947 32.4369 61.788 33.6151C62.2812 34.7933 62.5278 36.1222 62.5278 37.6019C62.5278 39.0815 62.2766 40.4104 61.7743 41.5886C61.281 42.7669 60.5412 43.6985 59.5548 44.3835C58.5684 45.0685 57.3399 45.411 55.8694 45.411ZM56.4723 42.0955C57.3034 42.0955 57.9656 41.9083 58.4588 41.5338C58.9611 41.1594 59.3219 40.6342 59.5411 39.9583C59.7603 39.2824 59.8699 38.4969 59.8699 37.6019C59.8699 36.7068 59.7603 35.9213 59.5411 35.2454C59.3219 34.5695 58.9703 34.0444 58.4862 33.6699C58.0112 33.2954 57.3856 33.1082 56.6093 33.1082C55.7781 33.1082 55.0931 33.3137 54.5542 33.7247C54.0245 34.1266 53.6317 34.67 53.376 35.355C53.1203 36.0309 52.9924 36.7798 52.9924 37.6019C52.9924 38.433 53.1157 39.1911 53.3623 39.8761C53.6089 40.552 53.9879 41.0909 54.4994 41.4927C55.0109 41.8946 55.6685 42.0955 56.4723 42.0955ZM59.8699 45V34.8618H59.4041V25.2716H63.158V45H59.8699ZM73.8716 45.411C72.3554 45.411 71.0174 45.0868 69.8574 44.4383C68.7066 43.7807 67.8024 42.881 67.1448 41.7393C66.4963 40.5885 66.172 39.2733 66.172 37.7937C66.172 36.177 66.4917 34.7705 67.1311 33.574C67.7704 32.3775 68.6518 31.4504 69.7752 30.7928C70.8986 30.1261 72.191 29.7927 73.6524 29.7927C75.2051 29.7927 76.5249 30.158 77.6118 30.8887C78.6987 31.6194 79.5024 32.6469 80.023 33.9713C80.5436 35.2956 80.7263 36.8529 80.571 38.6431H76.8857V37.273C76.8857 35.766 76.6436 34.6837 76.1595 34.0261C75.6846 33.3593 74.9037 33.026 73.8168 33.026C72.5472 33.026 71.6111 33.4141 71.0082 34.1905C70.4146 34.9577 70.1177 36.0948 70.1177 37.6019C70.1177 38.981 70.4146 40.0496 71.0082 40.8077C71.6111 41.5567 72.4924 41.9311 73.6524 41.9311C74.3831 41.9311 75.0087 41.7713 75.5293 41.4516C76.0499 41.132 76.4472 40.6707 76.7213 40.0679L80.4477 41.1365C79.8906 42.4883 79.0092 43.5386 77.8036 44.2876C76.6071 45.0365 75.2964 45.411 73.8716 45.411ZM68.9669 38.6431V35.8756H78.7763V38.6431H68.9669ZM87.1298 45L81.7593 30.2037H85.4858L88.9931 40.4515L92.5003 30.2037H96.2268L90.8563 45H87.1298ZM98.9767 45V24.8606H102.703V45H98.9767ZM110.921 45.411C109.861 45.411 108.961 45.2101 108.222 44.8082C107.491 44.3972 106.934 43.8537 106.55 43.1779C106.176 42.4929 105.988 41.7393 105.988 40.9173C105.988 40.2323 106.093 39.6067 106.304 39.0404C106.514 38.4741 106.852 37.9763 107.317 37.5471C107.792 37.1086 108.427 36.7433 109.222 36.451C109.77 36.2501 110.423 36.072 111.181 35.9167C111.939 35.7615 112.797 35.6153 113.757 35.4783C114.716 35.3322 115.77 35.1723 116.921 34.9988L115.579 35.7386C115.579 34.8618 115.369 34.2179 114.948 33.8069C114.528 33.3959 113.825 33.1904 112.839 33.1904C112.291 33.1904 111.72 33.3228 111.126 33.5877C110.532 33.8525 110.117 34.3229 109.879 34.9988L106.509 33.9302C106.884 32.7063 107.587 31.7107 108.619 30.9435C109.651 30.1763 111.058 29.7927 112.839 29.7927C114.145 29.7927 115.305 29.9936 116.318 30.3955C117.332 30.7974 118.099 31.4915 118.62 32.478C118.912 33.026 119.086 33.574 119.141 34.122C119.196 34.67 119.223 35.2819 119.223 35.9578V45H115.962V41.9585L116.428 42.5888C115.707 43.5843 114.926 44.3059 114.085 44.7534C113.254 45.1918 112.199 45.411 110.921 45.411ZM111.715 42.4791C112.4 42.4791 112.976 42.3604 113.441 42.1229C113.916 41.8763 114.291 41.5978 114.565 41.2872C114.848 40.9767 115.04 40.7164 115.14 40.5063C115.332 40.1044 115.442 39.6386 115.469 39.1089C115.506 38.57 115.524 38.1225 115.524 37.7663L116.62 38.0403C115.515 38.2229 114.62 38.3782 113.935 38.5061C113.25 38.6248 112.697 38.7344 112.277 38.8349C111.857 38.9353 111.487 39.0449 111.167 39.1637C110.802 39.3098 110.505 39.4697 110.277 39.6432C110.057 39.8076 109.893 39.9903 109.783 40.1912C109.683 40.3921 109.633 40.6159 109.633 40.8625C109.633 41.2005 109.715 41.4927 109.879 41.7393C110.053 41.9768 110.295 42.1595 110.605 42.2873C110.916 42.4152 111.286 42.4791 111.715 42.4791ZM130.046 45.411C128.576 45.411 127.347 45.0685 126.361 44.3835C125.375 43.6985 124.63 42.7669 124.128 41.5886C123.635 40.4104 123.388 39.0815 123.388 37.6019C123.388 36.1222 123.635 34.7933 124.128 33.6151C124.621 32.4369 125.347 31.5052 126.306 30.8202C127.265 30.1352 128.448 29.7927 129.855 29.7927C131.27 29.7927 132.503 30.1306 133.554 30.8065C134.604 31.4824 135.417 32.4095 135.992 33.5877C136.577 34.7568 136.869 36.0948 136.869 37.6019C136.869 39.0815 136.581 40.4104 136.006 41.5886C135.44 42.7669 134.645 43.6985 133.622 44.3835C132.599 45.0685 131.407 45.411 130.046 45.411ZM122.758 45V25.2716H126.512V34.8618H126.046V45H122.758ZM129.444 42.0955C130.247 42.0955 130.905 41.8946 131.416 41.4927C131.928 41.0909 132.307 40.552 132.553 39.8761C132.8 39.1911 132.923 38.433 132.923 37.6019C132.923 36.7798 132.796 36.0309 132.54 35.355C132.284 34.67 131.887 34.1266 131.348 33.7247C130.818 33.3137 130.138 33.1082 129.307 33.1082C128.53 33.1082 127.9 33.2954 127.416 33.6699C126.941 34.0444 126.594 34.5695 126.375 35.2454C126.155 35.9213 126.046 36.7068 126.046 37.6019C126.046 38.4969 126.155 39.2824 126.375 39.9583C126.594 40.6342 126.95 41.1594 127.443 41.5338C127.946 41.9083 128.612 42.0955 129.444 42.0955ZM145.264 45.411C143.401 45.411 141.894 44.9909 140.743 44.1506C139.601 43.3012 138.907 42.1047 138.66 40.5611L142.469 39.9857C142.624 40.6798 142.967 41.2233 143.497 41.616C144.035 42.0088 144.716 42.2051 145.538 42.2051C146.214 42.2051 146.734 42.0773 147.1 41.8215C147.465 41.5567 147.648 41.1913 147.648 40.7255C147.648 40.4332 147.575 40.2003 147.429 40.0268C147.282 39.8441 146.954 39.666 146.442 39.4925C145.94 39.319 145.154 39.0906 144.086 38.8075C142.88 38.4969 141.916 38.1499 141.195 37.7663C140.473 37.3826 139.953 36.926 139.633 36.3962C139.313 35.8574 139.154 35.2089 139.154 34.4508C139.154 33.5009 139.396 32.6789 139.88 31.9847C140.364 31.2815 141.044 30.7426 141.921 30.3681C142.807 29.9845 143.848 29.7927 145.045 29.7927C146.205 29.7927 147.232 29.9708 148.127 30.327C149.022 30.6832 149.744 31.1901 150.292 31.8477C150.849 32.5054 151.192 33.2817 151.319 34.1768L147.511 34.8618C147.447 34.3138 147.209 33.8799 146.798 33.5603C146.387 33.2406 145.83 33.0534 145.127 32.9986C144.442 32.9529 143.889 33.0442 143.469 33.2726C143.058 33.5009 142.853 33.8297 142.853 34.259C142.853 34.5147 142.939 34.7294 143.113 34.9029C143.296 35.0764 143.666 35.2545 144.223 35.4372C144.789 35.6199 145.648 35.8574 146.798 36.1496C147.922 36.4419 148.821 36.7844 149.497 37.1771C150.182 37.5608 150.68 38.0266 150.991 38.5746C151.301 39.1135 151.456 39.7665 151.456 40.5337C151.456 42.0499 150.908 43.2418 149.812 44.1095C148.716 44.9772 147.2 45.411 145.264 45.411Z" fill="white"/>
<g clip-path="url(#clip0_199_1592)">
<path d="M18.5336 14.7753C19.9873 14.7753 21.1658 13.5847 21.1658 12.1162C21.1658 10.6476 19.9873 9.45703 18.5336 9.45703C17.0798 9.45703 15.9014 10.6476 15.9014 12.1162C15.9014 13.5847 17.0798 14.7753 18.5336 14.7753Z" fill="white"/>
<path d="M19.4028 5.84554C20.3765 5.84554 21.1659 5.04808 21.1659 4.06437C21.1659 3.08066 20.3765 2.2832 19.4028 2.2832C18.429 2.2832 17.6396 3.08066 17.6396 4.06437C17.6396 5.04808 18.429 5.84554 19.4028 5.84554Z" fill="white"/>
<path d="M24.7314 11.2381C25.7052 11.2381 26.4945 10.4407 26.4945 9.45695C26.4945 8.47324 25.7052 7.67578 24.7314 7.67578C23.7576 7.67578 22.9683 8.47324 22.9683 9.45695C22.9683 10.4407 23.7576 11.2381 24.7314 11.2381Z" fill="white"/>
<path d="M15.7095 38.0282C16.6838 38.0282 17.4736 37.2303 17.4736 36.246C17.4736 35.2618 16.6838 34.4639 15.7095 34.4639C14.7351 34.4639 13.9453 35.2618 13.9453 36.246C13.9453 37.2303 14.7351 38.0282 15.7095 38.0282Z" fill="white"/>
<path d="M26.6587 38.0282C27.633 38.0282 28.4228 37.2303 28.4228 36.246C28.4228 35.2618 27.633 34.4639 26.6587 34.4639C25.6844 34.4639 24.8945 35.2618 24.8945 36.246C24.8945 37.2303 25.6844 38.0282 26.6587 38.0282Z" fill="white"/>
<path d="M21.2016 38.0282C22.1759 38.0282 22.9658 37.2303 22.9658 36.246C22.9658 35.2618 22.1759 34.4639 21.2016 34.4639C20.2273 34.4639 19.4375 35.2618 19.4375 36.246C19.4375 37.2303 20.2273 38.0282 21.2016 38.0282Z" fill="white"/>
<path d="M42.8126 34.6332C42.8088 36.6495 42.4892 38.6525 41.8655 40.5678C41.4068 41.9594 40.8083 43.3 40.0794 44.5686C38.6253 47.1176 36.8311 49.3281 34.4229 51.0194C31.6264 52.982 28.3327 54.096 24.9302 54.2301C27.8404 54.1119 29.1595 50.4122 27.4024 48.2521C26.5233 47.1711 25.0842 46.9196 23.7731 46.8983C22.029 46.869 20.2818 46.8923 18.5367 46.8983C16.8366 46.9044 15.0994 47.0085 13.3973 46.9226C9.86272 46.7393 6.52526 45.2213 4.04623 42.6695C1.56719 40.1177 0.127478 36.7183 0.0123587 33.1447C-0.10276 29.5712 1.11512 26.0843 3.42467 23.3751C5.73422 20.6659 8.96693 18.9319 12.4822 18.5168C14.1464 18.3229 15.8355 18.4158 17.5066 18.4158V25.4192C16.5555 26.7589 15.5975 28.0935 14.6574 29.4403C13.9653 30.4304 13.2593 31.4107 12.5392 32.3813C11.9452 33.1804 11.2291 33.9068 10.8221 34.8302C9.82202 37.0964 11.5222 39.7171 13.9663 39.7171H28.3225C30.8747 39.7171 32.5698 36.8387 31.3417 34.5746C30.9417 33.8432 30.3936 33.2178 29.9046 32.554C28.3215 30.394 26.8043 28.1845 25.2482 26.0012C25.1712 25.8921 24.8932 25.6233 24.8822 25.4849C24.8822 23.1299 24.8942 20.7739 24.8942 18.4188H27.3474C29.1105 18.4188 30.8297 18.5199 32.5248 19.0432C33.9934 19.4975 35.3786 20.1917 36.6251 21.0982C37.9434 22.0583 39.0891 23.2397 40.0124 24.5908C41.858 27.607 42.8283 31.0862 42.8126 34.6322V34.6332Z" fill="white"/>
</g>
<defs>
<clipPath id="clip0_199_1592">
<rect width="42.8133" height="51.9469" fill="white" transform="translate(0 2.2832)"/>
</clipPath>
</defs>
</svg>
