<?xml version="1.0" encoding="UTF-8"?>
<svg id="Capa_2" data-name="Capa 2" xmlns="http://www.w3.org/2000/svg" viewBox="0 0 216 261">
  <defs>
    <style>
      .cls-1 {
        fill: #005eb8;
      }
    </style>
  </defs>
  <g id="Capa_1-2" data-name="Capa 1">
    <circle class="cls-1" cx="108" cy="171" r="9"/>
    <circle class="cls-1" cx="135" cy="171" r="9"/>
    <circle class="cls-1" cx="81" cy="171" r="9"/>
    <path class="cls-1" d="m216,153.01v9c0,3.03-.12,6.04-.37,9-4.12,50.29-42.43,89.74-89.17,89.99,9.73-.24,17.54-8.2,17.54-17.99s-8.06-18-18-18h-54C32.24,225.01,0,192.77,0,153.01s32.24-72,72-72h18v36l-16.69,22.25-10.31,13.75-5.42,7.23c-2.25,3-3.58,6.73-3.58,10.77,0,9.94,8.06,18,18,18h72c9.94,0,18-8.06,18-18,0-3.97-1.29-7.64-3.46-10.61l-.12-.16-5.42-7.23-10.31-13.74h0s-16.69-22.26-16.69-22.26v-36h18c39.76,0,72,32.24,72,72Z"/>
    <circle class="cls-1" cx="94.5" cy="49.5" r="13.5"/>
    <circle class="cls-1" cx="99" cy="9" r="9"/>
    <circle class="cls-1" cx="126" cy="36" r="9"/>
  </g>
</svg>