<?xml version="1.0" encoding="UTF-8"?>
<svg id="Capa_2" data-name="Capa 2" xmlns="http://www.w3.org/2000/svg" viewBox="0 0 540 398.24">
  <defs>
    <style>
      .cls-1 {
        fill: #fff;
      }
    </style>
  </defs>
  <g id="Capa_1-2" data-name="Capa 1">
    <g>
      <g>
        <path class="cls-1" d="m170.33,364.6c6.8-45.21-52.85-58.77-75.05-24.93-27.73,48.93,49.91,82.36,74.35,37.21l-20.81-5.26c-7.95,15.14-35.66,10.99-36.52-7.01h58.01Zm-57.46-13.61c2.28-17.78,35.56-19.9,36.41,0h-36.41Z"/>
        <path class="cls-1" d="m201.62,395.88l-29.99-72.8h20.81l19.58,50.42,19.58-50.42h20.81l-29.99,72.8h-20.81Z"/>
        <rect class="cls-1" x="262.51" y="288.03" width="20.82" height="107.85"/>
        <path class="cls-1" d="m369.92,342.36c-4.62-29.7-63.26-27.73-70.53-.95l18.82,5.26c4.71-11.8,30.45-12.93,31.66,1.02-15.53,2.56-33.51,2.5-45.93,11.48-28.24,32.34,27.03,52.72,48.24,27.76v8.94h18.2c-.16-6.73.42-47.79-.46-53.51Zm-20.46,24.51c-.4,12.63-15.89,19.3-27.19,15.67-4.45-1.33-6.89-6.26-4.55-10.32,7.74-8.39,20.65-7.12,31.97-9.68-.04,1.28-.12,2.72-.23,4.32Z"/>
        <path class="cls-1" d="m505.32,397.9c-17.97-.03-33.48-6.38-36.87-23.86l21.27-2.83c2.15,10.5,17.55,13.43,25.86,9,5.45-3.8,3.39-10.32-3.63-11.42-6.4-2-23.33-5.25-29.34-8.49-12.09-4.49-14.69-19.09-7.34-28.48,14.81-17.23,59.08-14.81,63.88,10.82l-21.27,3.37c-1.06-9.41-15.62-10.86-22.53-7.82-6.75,3.73-2.85,9.57,4.21,10.65,10.4,3.27,31.17,5.1,37.75,15.4,10.34,20.52-10.9,35.13-31.98,33.67Z"/>
      </g>
      <path class="cls-1" d="m57.34,288v37.44c-79.81-29.04-73.85,102.24,2.6,66.26v4.18h18.36v-107.88h-20.97Zm.77,83.07c-3.32,11.08-19.45,13.25-28.16,7.55-9.12-6.31-10.22-20.59-6.26-30.23,3.81-10.76,19.53-14.08,28.57-8.26,8.97,6.3,8.97,21.46,5.85,30.94Z"/>
      <path class="cls-1" d="m458.85,339.7c-9.22-17.96-35.89-23.62-52.98-14.26v-37.4h-20.97v107.84h18.36v-4.18c35.72,21.78,74.9-14.65,55.58-52Zm-19.24,30.95c-3.63,11.08-19.6,13.78-28.49,8.19-9.2-6.2-9.13-21.43-6-30.95,11-23.01,46.2-6.93,34.5,22.76Z"/>
    </g>
    <g>
      <circle class="cls-1" cx="270" cy="9" r="9"/>
      <circle class="cls-1" cx="252" cy="45" r="18"/>
      <circle class="cls-1" cx="270" cy="162" r="9"/>
      <circle class="cls-1" cx="297" cy="162" r="9"/>
      <circle class="cls-1" cx="243" cy="162" r="9"/>
      <path class="cls-1" d="m378,144.01v9c0,3.03-.12,6.04-.37,9-4.12,50.29-42.43,89.74-89.17,89.99,9.73-.24,17.54-8.2,17.54-17.99s-8.06-18-18-18h-54c-39.76,0-72-32.24-72-72s32.24-72,72-72h18v36l-16.69,22.25-10.31,13.75-5.42,7.23c-2.25,3-3.58,6.73-3.58,10.77,0,9.94,8.06,18,18,18h72c9.94,0,18-8.06,18-18,0-3.97-1.29-7.64-3.46-10.61l-.12-.16-5.42-7.23-10.31-13.74h0s-16.69-22.26-16.69-22.26v-36h18c39.76,0,72,32.24,72,72Z"/>
      <path class="cls-1" d="m297,27.01c0,.15,0,.31-.01.46-.17,9.5-5.87,17.18-12.98,17.53,2.13-2.39,3.42-5.54,3.42-8.99v-.02c-4.71-.29-8.43-4.2-8.43-8.98,0-1.15.22-2.24.61-3.25,1.3-3.37,4.57-5.75,8.39-5.75,4.81,0,8.75,3.78,8.99,8.54.01.15.01.31.01.46Z"/>
    </g>
  </g>
</svg>