<svg width="28" height="28" viewBox="0 0 28 28" fill="none" xmlns="http://www.w3.org/2000/svg">
    <mask id="mask0_199_1607" style="mask-type:luminance" maskUnits="userSpaceOnUse" x="-1" y="0" width="29" height="28">
        <path d="M27.2185 0H-0.000488281V27.219H27.2185V0Z" fill="white"/>
    </mask>
    <g mask="url(#mask0_199_1607)">
        <path fill-rule="evenodd" clip-rule="evenodd" d="M27.2175 13.609C27.2175 21.125 21.1246 27.218 13.6085 27.218C6.09247 27.218 -0.000488281 21.125 -0.000488281 13.609C-0.000488281 6.09296 6.09247 0 13.6085 0C21.1246 0 27.2175 6.09296 27.2175 13.609ZM16.9273 11.3932C16.9429 11.2892 16.9588 11.1829 16.9754 11.0731C16.9304 11.0696 16.889 11.0659 16.8499 11.0623C16.7553 11.0537 16.6743 11.0463 16.5894 11.047C16.381 11.047 16.1727 11.0462 15.9645 11.0455C15.5482 11.0439 15.132 11.0424 14.7153 11.047C14.5333 11.049 14.4564 10.984 14.4714 10.8C14.4789 10.7128 14.4826 10.6253 14.4862 10.5379C14.4914 10.4147 14.4965 10.2917 14.5123 10.1701C14.5146 10.0701 14.5377 9.9718 14.5801 9.88125C14.6224 9.79071 14.6832 9.71002 14.7584 9.64419C14.8337 9.57837 14.9217 9.52889 15.0171 9.49893C15.1125 9.46897 15.213 9.45914 15.3124 9.47012C15.8051 9.46612 16.2978 9.46612 16.7904 9.47012C16.9504 9.47212 17.0383 9.41902 17.0383 9.24502V7.02798C17.0383 6.88198 16.9894 6.79515 16.8224 6.80215C16.5342 6.81408 16.2455 6.82091 15.9569 6.82774C15.3503 6.8421 14.7437 6.85646 14.1414 6.91812C13.6121 6.95105 13.1106 7.16576 12.7216 7.52603C12.3325 7.8863 12.0798 8.37004 12.0064 8.89517C11.9224 9.47562 11.875 10.0607 11.8644 10.6471C11.8541 10.8527 11.8534 10.9526 11.803 11.0011C11.7555 11.047 11.6636 11.047 11.4774 11.047C11.3583 11.047 11.2401 11.0477 11.1223 11.0484C10.8881 11.0497 10.6556 11.051 10.4214 11.047C10.2434 11.045 10.1704 11.118 10.1704 11.298C10.1744 12.002 10.1744 12.7058 10.1704 13.4091C10.1694 13.5851 10.2304 13.6621 10.4174 13.6571C10.6573 13.6518 10.8978 13.6536 11.1383 13.6554C11.2587 13.6562 11.379 13.6571 11.4994 13.6571C11.6804 13.6571 11.7707 13.6571 11.8156 13.7022C11.8604 13.7471 11.8604 13.8365 11.8604 14.015C11.8604 14.6893 11.8611 15.3637 11.8619 16.0382C11.8635 17.3872 11.865 18.7364 11.8604 20.0851C11.8594 20.3291 11.9214 20.428 12.1854 20.421C12.8454 20.403 13.5051 20.403 14.1644 20.421C14.4264 20.428 14.4834 20.339 14.4834 20.091C14.4784 18.068 14.4784 16.0441 14.4784 14.0211C14.4784 13.6562 14.4795 13.6562 14.8304 13.6562H14.8305C14.9948 13.6562 15.1592 13.6547 15.3235 13.6533C15.652 13.6504 15.9804 13.6475 16.3084 13.6562C16.5074 13.6622 16.5904 13.595 16.6174 13.401C16.665 13.0574 16.7199 12.7166 16.7747 12.3767C16.8006 12.2161 16.8264 12.0556 16.8515 11.8952C16.877 11.7302 16.9017 11.5647 16.9273 11.3932Z" fill="white"/>
    </g>
</svg>
