<svg width="28" height="28" viewBox="0 0 28 28" fill="none" xmlns="http://www.w3.org/2000/svg">
    <path d="M13.7628 0.0185571C11.9769 0.0185568 10.2084 0.379064 8.55835 1.0795C6.90832 1.77993 5.40907 2.80657 4.14619 4.1008C1.59569 6.71461 0.16284 10.2597 0.16284 13.9562C0.162839 20.1166 4.06604 25.3433 9.46524 27.197C10.1452 27.3085 10.3628 26.8764 10.3628 26.5001L10.3628 24.1446C6.59564 24.9809 5.79324 22.277 5.79324 22.277C5.16764 20.6602 4.28364 20.2281 4.28364 20.2281C3.04604 19.364 4.37884 19.3919 4.37884 19.3919C5.73884 19.4894 6.45964 20.8275 6.45964 20.8275C7.64284 22.946 9.64204 22.3188 10.4172 21.9843C10.5396 21.0783 10.8932 20.4651 11.274 20.1166C8.25484 19.7682 5.08604 18.5696 5.08604 13.2593C5.08604 11.7122 5.60284 10.4718 6.48684 9.48222C6.35084 9.13378 5.87484 7.68426 6.62284 5.80268C6.62284 5.80268 7.76524 5.42636 10.3628 7.22432C11.4372 6.91769 12.6068 6.76438 13.7628 6.76438C14.9188 6.76438 16.0884 6.91769 17.1628 7.22432C19.7604 5.42637 20.9028 5.80268 20.9028 5.80268C21.6508 7.68426 21.1748 9.13378 21.0388 9.48222C21.9228 10.4718 22.4396 11.7122 22.4396 13.2593C22.4396 18.5835 19.2572 19.7543 16.2244 20.1027C16.714 20.5348 17.1628 21.385 17.1628 22.6812L17.1628 26.5001C17.1628 26.8764 17.3804 27.3224 18.074 27.197C23.4732 25.3293 27.3628 20.1166 27.3628 13.9562C27.3628 12.1259 27.0111 10.3135 26.3276 8.6225C25.6441 6.93151 24.6424 5.39503 23.3795 4.1008C22.1166 2.80657 20.6174 1.77993 18.9673 1.0795C17.3173 0.379066 15.5488 0.0185574 13.7628 0.0185571Z" fill="white"/>
</svg>
