<svg width="28" height="28" viewBox="0 0 28 28" fill="none" xmlns="http://www.w3.org/2000/svg">
    <path fill-rule="evenodd" clip-rule="evenodd" d="M27.218 13.61C27.218 21.126 21.125 27.219 13.609 27.219C6.09296 27.219 0 21.126 0 13.61C0 6.09393 6.09296 0.000976562 13.609 0.000976562C21.125 0.000976562 27.218 6.09393 27.218 13.61ZM16.8149 7.14893H10.4049C10.351 7.15917 10.2974 7.16821 10.244 7.17719C10.115 7.1989 9.98767 7.22033 9.86389 7.25781C9.20337 7.41567 8.60242 7.76095 8.13324 8.25195C7.66406 8.74295 7.34657 9.35887 7.21887 10.0259C7.19848 10.1138 7.18403 10.2037 7.16959 10.2935L7.16959 10.2935L7.16959 10.2935L7.16958 10.2936L7.16957 10.2936C7.16349 10.3315 7.1574 10.3693 7.15088 10.407V16.8169C7.16226 16.8754 7.17227 16.9344 7.18228 16.9934L7.18229 16.9934L7.18229 16.9934C7.20306 17.1158 7.22384 17.2382 7.2569 17.3569C7.4133 18.0178 7.75788 18.6191 8.24896 19.0881C8.74004 19.5572 9.35654 19.8738 10.0239 19.9998C10.2583 20.0489 10.4974 20.0721 10.7369 20.0688H16.4899C17.319 20.0736 18.1238 19.7887 18.7653 19.2632C19.4067 18.7377 19.8444 18.0048 20.0029 17.1909C20.0474 16.9603 20.0695 16.7259 20.0689 16.491C20.0729 14.5683 20.0729 12.6462 20.0689 10.7249C20.0717 9.89784 19.7868 9.09557 19.263 8.45557C18.7392 7.81556 18.0091 7.3776 17.1979 7.2168C17.103 7.19737 17.0075 7.18136 16.9119 7.16533L16.9119 7.16532L16.8149 7.14893ZM13.6099 18.9189V18.9128C13.3339 18.9128 13.0579 18.9135 12.7819 18.9142C12.0523 18.916 11.3221 18.9179 10.5909 18.907C10.1239 18.888 9.67269 18.7323 9.29333 18.4592C8.91398 18.1862 8.62316 17.8077 8.45691 17.3708C8.34769 17.0703 8.29346 16.7526 8.29688 16.4329C8.29688 15.8049 8.29832 15.1768 8.29976 14.5487V14.5485V14.5483C8.30265 13.2921 8.30554 12.0357 8.29688 10.7798C8.28676 10.2616 8.44165 9.75374 8.73914 9.32935C9.03663 8.90495 9.46134 8.58616 9.9519 8.41895C10.2205 8.33387 10.5011 8.29261 10.7829 8.29688C11.4108 8.29688 12.0388 8.29821 12.6668 8.29954H12.6669H12.667H12.6673C13.9235 8.30221 15.18 8.30487 16.4359 8.29688C16.9541 8.28676 17.462 8.44152 17.8864 8.73901C18.3108 9.0365 18.6297 9.46134 18.7969 9.9519C18.8823 10.2205 18.9235 10.5012 18.9189 10.783C18.9189 11.4109 18.9176 12.0389 18.9162 12.6669V12.667V12.6671C18.9136 13.9234 18.9109 15.1798 18.9189 16.4358C18.9292 16.954 18.7743 17.462 18.4768 17.8865C18.1793 18.3109 17.7546 18.6298 17.2639 18.7969C16.9914 18.883 16.7067 18.9243 16.4209 18.9189H13.6099ZM16.9398 13.6128C16.939 14.2715 16.7428 14.9152 16.3761 15.4624C16.0094 16.0096 15.4887 16.4358 14.8797 16.687C14.2708 16.9382 13.601 17.0033 12.9551 16.8738C12.3092 16.7443 11.7163 16.426 11.2513 15.9595C10.7862 15.4929 10.47 14.899 10.3426 14.2527C10.2153 13.6064 10.2824 12.9367 10.5357 12.3286C10.7889 11.7205 11.2168 11.2011 11.7652 10.8362C12.3137 10.4713 12.9581 10.2774 13.6168 10.2788C14.4988 10.2828 15.3434 10.6356 15.966 11.2603C16.5887 11.885 16.9387 12.7308 16.9398 13.6128ZM15.7858 13.6047C15.785 13.1743 15.6566 12.7537 15.4169 12.3962C15.1772 12.0387 14.8368 11.7603 14.4389 11.5962C14.041 11.4321 13.6033 11.3896 13.1812 11.4741C12.7592 11.5587 12.3717 11.7663 12.0677 12.0711C11.7636 12.3758 11.5567 12.7638 11.4732 13.186C11.3896 13.6083 11.4331 14.0458 11.5982 14.4434C11.7632 14.8409 12.0424 15.1808 12.4004 15.4197C12.7585 15.6586 13.1793 15.7858 13.6098 15.7857C13.8961 15.7863 14.1798 15.7303 14.4444 15.6209C14.7091 15.5114 14.9494 15.3509 15.1517 15.1482C15.354 14.9455 15.5141 14.7046 15.623 14.4397C15.7318 14.1748 15.7871 13.8911 15.7858 13.6047ZM16.4858 10.7431C16.6443 10.9004 16.8586 10.9882 17.0819 10.9877C17.2487 10.9873 17.4116 10.9375 17.5501 10.8444C17.6885 10.7514 17.7962 10.6193 17.8596 10.465C17.923 10.3107 17.9392 10.1412 17.9061 9.9777C17.873 9.8142 17.7922 9.66408 17.6738 9.54655C17.5554 9.42902 17.4048 9.34921 17.2411 9.3173C17.0774 9.28539 16.9078 9.30287 16.754 9.36735C16.6001 9.43183 16.4689 9.54049 16.3768 9.67961C16.2848 9.81872 16.236 9.98203 16.2368 10.1488C16.2379 10.3721 16.3274 10.5858 16.4858 10.7431Z" fill="white"/>
</svg>
