<svg width="28" height="28" viewBox="0 0 28 28" fill="none" xmlns="http://www.w3.org/2000/svg">
<path d="M13.7448 0.0185547C6.23361 0.0185547 0.144775 6.10739 0.144775 13.6186C0.144775 21.1297 6.23361 27.2186 13.7448 27.2186C21.2559 27.2186 27.3448 21.1297 27.3448 13.6186C27.3448 6.10739 21.2559 0.0185547 13.7448 0.0185547ZM10.4156 19.2555H7.66161V10.3928H10.4156V19.2555ZM9.02161 9.3048C8.15177 9.3048 7.58936 8.68855 7.58936 7.92639C7.58936 7.14864 8.16878 6.5508 9.05702 6.5508C9.94527 6.5508 10.4893 7.14864 10.5063 7.92639C10.5063 8.68855 9.94527 9.3048 9.02161 9.3048ZM20.4739 19.2555H17.7199V14.3439C17.7199 13.2006 17.3204 12.4243 16.3245 12.4243C15.5638 12.4243 15.1119 12.9499 14.9121 13.4556C14.8384 13.6356 14.82 13.8906 14.82 14.1441V19.2541H12.0646V13.2191C12.0646 12.1126 12.0292 11.1876 11.9924 10.3914H14.3851L14.5112 11.6225H14.5664C14.9291 11.0445 15.8174 10.1916 17.3034 10.1916C19.1154 10.1916 20.4739 11.4057 20.4739 14.0152V19.2555Z" fill="white"/>
</svg>
