<svg width="28" height="28" viewBox="0 0 28 28" fill="none" xmlns="http://www.w3.org/2000/svg">
    <path fill-rule="evenodd" clip-rule="evenodd" d="M13.609 27.219C21.125 27.219 27.218 21.126 27.218 13.61C27.218 6.09393 21.125 0.000976562 13.609 0.000976562C6.09296 0.000976562 0 6.09393 0 13.61C0 21.126 6.09296 27.219 13.609 27.219ZM10.542 12.1984C10.5456 11.964 10.5961 11.7327 10.6905 11.5182C10.785 11.3037 10.9215 11.1102 11.092 10.9494C11.1471 10.8905 11.2141 10.844 11.2886 10.8131C11.3631 10.7823 11.4434 10.7677 11.524 10.7704C11.6086 10.7752 11.6934 10.7752 11.778 10.7704C11.8454 10.7618 11.9138 10.7771 11.9712 10.8136C12.0285 10.8502 12.0713 10.9056 12.092 10.9704L12.1452 11.0958C12.3007 11.462 12.4564 11.8288 12.6 12.2003C12.6119 12.2416 12.6154 12.2847 12.6103 12.3273C12.6051 12.3699 12.5914 12.4112 12.57 12.4484C12.4553 12.626 12.3297 12.7963 12.194 12.9584C12.1537 12.999 12.1293 13.0527 12.1253 13.1098C12.1212 13.1668 12.1378 13.2235 12.172 13.2694C12.64 14.0796 13.3696 14.7065 14.241 15.0473C14.2665 15.0631 14.2948 15.0738 14.3244 15.0785C14.354 15.0832 14.3843 15.0819 14.4134 15.0749C14.4425 15.0678 14.4699 15.055 14.4941 15.0373C14.5182 15.0195 14.5386 14.9971 14.554 14.9713C14.7047 14.7887 14.8533 14.6044 15 14.4184C15.107 14.2814 15.167 14.2503 15.326 14.3183C15.752 14.5183 16.175 14.7184 16.594 14.9274C16.6216 14.9449 16.6449 14.9683 16.6622 14.996C16.6795 15.0237 16.6904 15.0548 16.694 15.0873C16.7178 15.3008 16.6807 15.5167 16.5871 15.7101C16.4935 15.9035 16.3472 16.0665 16.165 16.1803C15.9338 16.3262 15.673 16.4186 15.4015 16.4508C15.1301 16.483 14.8548 16.4542 14.596 16.3664C13.2293 15.9553 12.049 15.0798 11.259 13.8913C10.9622 13.5203 10.7438 13.0932 10.617 12.6354C10.5884 12.5364 10.5738 12.4282 10.5589 12.3184C10.5535 12.2785 10.5481 12.2384 10.542 12.1984ZM7.56383 19.5905L7.52881 19.7183C7.5499 19.7137 7.56849 19.7093 7.58541 19.7053C7.61983 19.6972 7.64732 19.6907 7.6748 19.6873C8.65147 19.4326 9.62745 19.1753 10.6028 18.9153C10.6465 18.9029 10.6924 18.8991 10.7375 18.9046C10.7827 18.9101 10.8263 18.9247 10.8658 18.9473C11.9577 19.518 13.2002 19.7345 14.4208 19.5672C15.5994 19.4152 16.7055 18.9141 17.5968 18.1282C18.4995 17.3534 19.1507 16.327 19.4671 15.1802C19.7834 14.0334 19.7506 12.8183 19.3728 11.6902C19.0338 10.5815 18.3741 9.59792 17.4771 8.86333C16.58 8.12875 15.4856 7.67605 14.3318 7.56231C13.1304 7.38808 11.905 7.61281 10.8438 8.2022C9.92411 8.66682 9.14139 9.36299 8.57272 10.2222C8.00405 11.0815 7.66907 12.0742 7.6008 13.1023C7.49295 14.2841 7.74942 15.4705 8.33578 16.5023C8.36302 16.5567 8.37044 16.6189 8.35678 16.6783C8.21087 17.2252 8.06202 17.771 7.91314 18.3169L7.90979 18.3292C7.79597 18.7434 7.68217 19.1587 7.56383 19.5905ZM9.26522 18.2082C9.17262 18.2324 9.0795 18.2568 8.98578 18.2813C9.14578 17.6923 9.30079 17.1282 9.45679 16.5652C9.47121 16.5224 9.4752 16.4766 9.46841 16.4319C9.46163 16.3872 9.44427 16.3448 9.41779 16.3082C8.83653 15.4336 8.55316 14.3948 8.6098 13.3462C8.63568 12.6239 8.82001 11.9162 9.14972 11.273C9.47943 10.6298 9.94646 10.067 10.5178 9.62432C11.1953 9.07491 12.0093 8.71955 12.8728 8.59624C14.082 8.41112 15.3172 8.67434 16.3459 9.33623C17.3747 9.99813 18.1261 11.0131 18.4588 12.1902C18.6488 12.8599 18.6977 13.5615 18.6024 14.251C18.5072 14.9405 18.2698 15.6028 17.9054 16.1959C17.541 16.7889 17.0574 17.2999 16.4853 17.6963C15.9132 18.0928 15.265 18.3663 14.5818 18.4993C13.3561 18.7452 12.0827 18.5167 11.0188 17.8602C10.9775 17.8327 10.9305 17.8148 10.8814 17.8077C10.8323 17.8006 10.7822 17.8044 10.7348 17.8191C10.2505 17.9508 9.7654 18.0775 9.26522 18.2082Z" fill="white"/>
</svg>
